<svg xmlns="http://www.w3.org/2000/svg" fill="none" viewBox="0 0 367 138" height="138" width="367">
<path fill="white" d="M55.3629 37.1375V1.91211H78.0518V101.113H55.3629V95.1952C49.892 100.46 42.5688 103.393 34.9541 103.368C16.0953 103.368 0.931885 86.7322 0.931885 66.1663C0.931885 45.6005 16.0953 28.9648 34.9541 28.9648C42.5688 28.94 49.892 31.8726 55.3629 37.1375ZM55.3629 66.1663C55.3629 56.8659 48.2754 49.2514 39.4919 49.2514C30.7083 49.2514 23.6096 56.8659 23.6096 66.1663C23.6096 75.4667 30.6971 83.0701 39.4919 83.0701C48.2866 83.0701 55.3629 75.4667 55.3629 66.1663Z"></path>
<path fill="white" d="M207.331 31.2744L164.233 137.241H139.287L157.573 96.0311L130.211 31.2744H155.158L168.771 69.6036L182.373 31.2744H207.331Z"></path>
<path fill="white" d="M286.711 66.1654C286.711 86.7313 271.121 103.367 248.162 103.367C224.204 103.367 209.602 86.7313 209.602 66.1654C209.602 45.5996 223.923 28.9639 248.162 28.9639C270.84 28.9639 286.711 45.5885 286.711 66.1654ZM264.033 66.1654C264.033 56.8651 256.946 49.2506 248.162 49.2506C239.379 49.2506 232.314 56.8651 232.314 66.1654C232.314 75.4658 239.401 83.0692 248.196 83.0692C256.991 83.0692 264.033 75.4658 264.033 66.1654Z"></path>
<path fill="white" d="M295.785 71.8031V31.2744H318.474V69.5478C318.474 80.8132 324.843 83.0686 329.807 83.0686C334.491 83.0686 343.421 79.9759 343.421 67.2925V31.2744H366.098V101.167H343.421V94.3451C340.881 97.233 337.738 99.536 334.211 101.094C330.685 102.652 326.859 103.427 323.001 103.366C308.691 103.366 295.785 92.9384 295.785 71.8031Z"></path>
<path fill="white" d="M107.987 0.013728C109.756 -0.0769107 111.52 0.282423 113.111 1.05778C114.702 1.83314 116.068 2.99893 117.08 4.445C118.092 5.89107 118.716 7.56969 118.894 9.32226C119.071 11.0748 118.797 12.8435 118.095 14.4612L111.716 29.344C110.948 31.1118 109.702 32.6327 108.115 33.7369C106.528 34.841 104.664 35.4848 102.73 35.5964L95.7659 35.9872C95.5531 35.9978 95.3405 35.9613 95.1437 35.8803C94.9468 35.7993 94.7704 35.6757 94.6275 35.5187C94.4845 35.3616 94.3784 35.1749 94.317 34.9721C94.2555 34.7692 94.2402 34.5554 94.2721 34.3459L98.2819 8.78937C98.6395 6.44118 99.7994 4.28693 101.567 2.68877C103.334 1.09062 105.601 0.146002 107.987 0.013728Z"></path>
</svg>
